{"title":"Crusoe Season 1 HDTV XviD - DiGrX","uid":9003944,"size":4768839976,"categoryP":"video","categoryS":"tv_shows","magnet":"?xt=urn:btih:a4c8009856f71e3268588b158648253bfcffb225&amp;dn=Crusoe+Season+1+HDTV+XviD+-+DiGrX&amp;tr=udp%3A%2F%2Ftracker.openbittorrent.com%3A80&amp;tr=udp%3A%2F%2Fopen.demonii.com%3A1337&amp;tr=udp%3A%2F%2Ftracker.coppersurfer.tk%3A6969&amp;tr=udp%3A%2F%2Fexodus.desync.com%3A6969","seeders":4,"leechers":4,"uploader":"dimigeor","files":13,"time":1380998386,"description":"Crusoe Season 1 HDTV XviD - DiGrX\n\nAll episodes in XviD from HDTV\n\nCodec ID, Format: XVID, MPEG-4\nAspect ratio, Dimension: 16:9, 624x352\nAudio: MP3, 2 Channels\n\n\n-----------------------------------------------------------------------------------\n\n\nEpisode 1-2 example:\n\nGeneral\nComplete name                            : Crusoe 1x01-02 - Rum and Gunpowder HDTV.avi\nFormat                                   : AVI\nFormat/Info                              : Audio Video Interleave\nFile size                                : 700 MiB\nDuration                                 : 1h 25mn\nOverall bit rate mode                    : Variable\nOverall bit rate                         : 1 148 Kbps\nWriting application                      : transcode-0.6.9\n\nVideo\nID                                       : 0\nFormat                                   : MPEG-4 Visual\nFormat profile                           : Advanced Simple@L5\nFormat settings, BVOP                    : 2\nFormat settings, QPel                    : No\nFormat settings, GMC                     : No warppoints\nFormat settings, Matrix                  : Default (H.263)\nMuxing mode                              : Packed bitstream\nCodec ID                                 : XVID\nCodec ID/Hint                            : XviD\nDuration                                 : 1h 25mn\nBit rate                                 : 1 002 Kbps\nWidth                                    : 624 pixels\nHeight                                   : 352 pixels\nDisplay aspect ratio                     : 16:9\nFrame rate                               : 23.976 fps\nColor space                              : YUV\nChroma subsampling                       : 4:2:0\nBit depth                                : 8 bits\nScan type                                : Progressive\nCompression mode                         : Lossy\nBits/(Pixel*Frame)                       : 0.190\nStream size                              : 611 MiB (87%)\nWriting library                          : XviD 1.1.2 (UTC 2006-11-01)\n\nAudio\nID                                       : 1\nFormat                                   : MPEG Audio\nFormat version                           : Version 1\nFormat profile                           : Layer 3\nMode                                     : Joint stereo\nMode extension                           : MS Stereo\nCodec ID                                 : 55\nCodec ID/Hint                            : MP3\nDuration                                 : 1h 25mn\nBit rate mode                            : Variable\nBit rate                                 : 135 Kbps\nChannel(s)                               : 2 channels\nSampling rate                            : 48.0 KHz\nCompression mode                         : Lossy\nStream size                              : 81.3 MiB (12%)\nAlignment                                : Aligned on interleaves\nInterleave, duration                     : 24 ms (0.58 video frame)\nWriting library                          : LAME3.90.\nEncoding settings                        : -m j -V 4 -q 2 -lowpass 17.6 --abr 135\n\n\n-----------------------------------------------------------------------------------","torrent":{"xt":"urn:btih:a4c8009856f71e3268588b158648253bfcffb225","amp;dn":"Crusoe+Season+1+HDTV+XviD+-+DiGrX","amp;tr":["udp%3A%2F%2Ftracker.openbittorrent.com%3A80","udp%3A%2F%2Fopen.demonii.com%3A1337","udp%3A%2F%2Ftracker.coppersurfer.tk%3A6969","udp%3A%2F%2Fexodus.desync.com%3A6969"],"infoHash":"a4c8009856f71e3268588b158648253bfcffb225","infoHashBuffer":{"type":"Buffer","data":[164,200,0,152,86,247,30,50,104,88,139,21,134,72,37,59,252,255,178,37]},"announce":[],"urlList":[]}}